<svg width="696" height="443" viewBox="0 0 696 443" fill="none" xmlns="http://www.w3.org/2000/svg">
<path d="M665.536 361.288H451.906C451.982 361.759 452.032 362.239 452.032 362.731C452.032 371.303 445.083 378.252 436.511 378.252H258.692C250.12 378.252 243.171 371.303 243.171 362.731C243.171 362.238 243.221 361.759 243.297 361.288H30C13.432 361.288 0 374.719 0 391.288C0 419.833 23.141 442.974 51.686 442.974H643.851C672.396 442.974 695.537 419.833 695.537 391.288C695.536 374.719 682.105 361.288 665.536 361.288ZM102.125 414.631H71.039C64.135 414.631 58.539 409.035 58.539 402.131C58.539 395.227 64.135 389.631 71.039 389.631H102.125C109.028 389.631 114.625 395.227 114.625 402.131C114.625 409.034 109.028 414.631 102.125 414.631ZM621.526 414.631H590.44C583.536 414.631 577.94 409.035 577.94 402.131C577.94 395.227 583.536 389.631 590.44 389.631H621.526C628.43 389.631 634.026 395.227 634.026 402.131C634.026 409.034 628.43 414.631 621.526 414.631Z" fill="white"/>
<path d="M520.248 95.26C528.67 95.26 535.498 88.4324 535.498 80.01C535.498 71.5877 528.67 64.76 520.248 64.76C511.826 64.76 504.998 71.5877 504.998 80.01C504.998 88.4324 511.826 95.26 520.248 95.26Z" fill="white"/>
<path d="M453.108 242.515C445.023 240.202 436.564 244.898 434.251 252.983C431.938 261.068 436.635 269.526 444.719 271.839C452.804 274.152 461.263 269.456 463.576 261.371C465.888 253.287 461.192 244.828 453.108 242.515Z" fill="white"/>
<path d="M246.529 163.053C255.366 163.053 262.529 155.89 262.529 147.053C262.529 138.216 255.366 131.053 246.529 131.053C237.692 131.053 230.529 138.216 230.529 147.053C230.529 155.89 237.692 163.053 246.529 163.053Z" fill="white"/>
<path d="M604.026 0H91.223C74.655 0 61.223 13.431 61.223 30V336.287H634.027V30C634.026 13.432 620.595 0 604.026 0ZM185.029 188.803H175.529C153.159 188.803 135.029 170.663 135.029 148.303V145.803C135.029 123.433 153.159 105.303 175.529 105.303H185.029V188.803ZM251.218 287.973H227.218C221.698 287.973 216.698 285.733 213.078 282.113C209.458 278.493 207.218 273.493 207.218 267.973C207.218 260.623 211.198 254.213 217.109 250.733L212.859 213.803H249.479C249.479 213.803 249.739 213.803 249.829 213.803C250.069 213.803 250.299 213.813 250.539 213.833C250.579 213.843 250.629 213.843 250.679 213.843C250.959 213.863 251.239 213.883 251.52 213.923C252.07 213.983 252.62 214.063 253.169 214.173L257.159 248.863C261.229 250.123 264.739 252.663 267.239 256.003C269.739 259.343 271.219 263.483 271.219 267.973C271.218 279.013 262.269 287.973 251.218 287.973ZM384.779 70.693V108.683V185.413V223.413V240.053C384.779 246.953 379.178 252.553 372.279 252.553C365.968 252.553 360.769 247.873 359.919 241.803H351.579C342.439 241.803 333.539 238.943 326.109 233.623L274.949 196.983C270.189 193.573 264.829 191.173 259.189 189.903C258.909 189.833 258.628 189.773 258.348 189.713C258.239 189.683 258.119 189.663 257.998 189.643C257.888 189.613 257.778 189.593 257.658 189.583C257.258 189.493 256.847 189.423 256.448 189.363C256.278 189.333 256.118 189.313 255.948 189.293C255.568 189.233 255.188 189.183 254.808 189.133C254.608 189.103 254.408 189.083 254.198 189.063C253.738 189.013 253.268 188.973 252.798 188.933C252.689 188.923 252.578 188.913 252.479 188.913C252.088 188.883 251.689 188.863 251.298 188.853C250.979 188.833 250.649 188.823 250.328 188.813C250.058 188.803 249.768 188.803 249.478 188.803H212.858C211.908 188.803 210.958 188.853 210.028 188.973V188.063V105.303H249.478C258.618 105.303 267.518 102.443 274.948 97.123L326.108 60.483C333.538 55.163 342.438 52.303 351.578 52.303H359.918C360.769 46.233 365.968 41.553 372.278 41.553C379.177 41.553 384.778 47.153 384.778 54.053L384.779 70.693ZM409.779 183.883C424.369 178.013 434.689 163.713 434.689 147.053C434.689 130.393 424.369 116.093 409.779 110.213V87.433C416.419 89.083 422.629 91.813 428.218 95.423L438.399 87.393C441.589 84.873 446.149 85.143 449.019 88.013L454.029 93.023C456.899 95.893 457.169 100.463 454.659 103.643L446.619 113.823C450.559 119.913 453.439 126.733 455.019 134.043L467.869 135.553C471.899 136.033 474.939 139.443 474.939 143.503V150.593C474.939 154.653 471.899 158.073 467.869 158.543L455.019 160.063C453.439 167.363 450.559 174.193 446.619 180.273L454.659 190.453C457.169 193.643 456.899 198.203 454.029 201.073L449.019 206.083C446.149 208.953 441.588 209.223 438.399 206.713L428.218 198.683C422.628 202.293 416.418 205.013 409.779 206.663V183.883ZM487.834 266.467L486.858 269.875C486.3 271.826 484.371 273.05 482.368 272.725L475.98 271.686C474.215 274.98 471.891 277.864 469.165 280.251L471.626 286.248C472.396 288.125 471.64 290.282 469.866 291.267L466.766 292.987C464.992 293.972 462.761 293.473 461.576 291.827L457.788 286.567C454.32 287.62 450.643 288.067 446.914 287.823L444.418 293.794C443.636 295.666 441.575 296.656 439.625 296.098L436.217 295.123C434.266 294.565 433.041 292.635 433.367 290.632L434.406 284.245C431.112 282.48 428.227 280.156 425.842 277.429L419.844 279.89C417.967 280.661 415.811 279.904 414.826 278.13L413.105 275.031C412.121 273.257 412.619 271.026 414.265 269.84L419.526 266.052C418.473 262.584 418.026 258.907 418.27 255.178L412.299 252.682C410.427 251.899 409.437 249.839 409.995 247.888L410.97 244.48C411.528 242.529 413.457 241.304 415.46 241.63L421.848 242.669C423.613 239.375 425.937 236.491 428.665 234.104L426.203 228.107C425.434 226.23 426.189 224.073 427.964 223.088L431.063 221.368C432.837 220.383 435.068 220.882 436.253 222.528L440.042 227.789C443.509 226.736 447.186 226.289 450.915 226.533L453.411 220.563C454.194 218.691 456.254 217.7 458.205 218.258L461.612 219.233C463.563 219.791 464.788 221.721 464.463 223.724L463.424 230.111C466.718 231.876 469.602 234.2 471.989 236.927L477.986 234.466C479.863 233.696 482.02 234.452 483.004 236.226L484.725 239.325C485.709 241.099 485.211 243.329 483.565 244.515L478.304 248.303C479.357 251.771 479.804 255.448 479.56 259.177L485.531 261.673C487.401 262.456 488.391 264.516 487.834 266.467ZM560.22 81.782C560.22 83.811 558.701 85.519 556.687 85.757L550.26 86.515C549.469 90.167 548.028 93.579 546.062 96.624L550.078 101.713C551.335 103.306 551.201 105.588 549.766 107.023L547.259 109.529C545.824 110.964 543.543 111.098 541.949 109.841L536.86 105.825C533.816 107.791 530.403 109.232 526.752 110.023L525.994 116.45C525.756 118.465 524.048 119.984 522.018 119.984H518.474C516.445 119.984 514.737 118.465 514.498 116.45L513.74 110.023C510.089 109.232 506.676 107.791 503.632 105.825L498.543 109.841C496.95 111.098 494.668 110.964 493.233 109.529L490.726 107.023C489.291 105.588 489.158 103.307 490.414 101.713L494.43 96.624C492.464 93.58 491.023 90.167 490.232 86.515L483.805 85.757C481.79 85.519 480.272 83.811 480.272 81.782V78.238C480.272 76.209 481.791 74.501 483.805 74.263L490.232 73.505C491.023 69.853 492.464 66.44 494.43 63.396L490.414 58.307C489.157 56.714 489.291 54.433 490.726 52.997L493.233 50.491C494.668 49.056 496.95 48.922 498.543 50.179L503.632 54.195C506.676 52.229 510.089 50.788 513.74 49.997L514.498 43.57C514.736 41.555 516.444 40.036 518.474 40.036H522.018C524.047 40.036 525.755 41.555 525.994 43.57L526.752 49.997C530.403 50.788 533.816 52.229 536.86 54.195L541.949 50.179C543.543 48.922 545.824 49.056 547.259 50.491L549.766 52.997C551.201 54.432 551.334 56.714 550.078 58.307L546.062 63.396C548.028 66.44 549.469 69.853 550.26 73.505L556.687 74.263C558.702 74.501 560.22 76.209 560.22 78.238V81.782Z" fill="white"/>
</svg>
