<svg width="24" height="24" viewBox="0 0 24 24" fill="none" xmlns="http://www.w3.org/2000/svg">
<path d="M21 0H3C2.20435 0 1.44129 0.31607 0.878679 0.878679C0.31607 1.44129 0 2.20435 0 3V21C0 21.7956 0.31607 22.5587 0.878679 23.1213C1.44129 23.6839 2.20435 24 3 24H21C21.7956 24 22.5587 23.6839 23.1213 23.1213C23.6839 22.5587 24 21.7956 24 21V3C24 2.20435 23.6839 1.44129 23.1213 0.878679C22.5587 0.31607 21.7956 0 21 0ZM10.45 18.18C10.4487 18.3686 10.4101 18.5552 10.3364 18.7288C10.2627 18.9025 10.1554 19.0598 10.0206 19.1918C9.88579 19.3238 9.72623 19.4278 9.55107 19.4979C9.37591 19.5679 9.18863 19.6026 9 19.6H4.58C4.39221 19.6013 4.206 19.5656 4.032 19.495C3.858 19.4243 3.69962 19.3201 3.5659 19.1882C3.43218 19.0564 3.32575 18.8995 3.25267 18.7265C3.17959 18.5535 3.14131 18.3678 3.14 18.18V4.56C3.14 4.17809 3.29171 3.81182 3.56177 3.54177C3.83182 3.27171 4.19809 3.12 4.58 3.12H9C9.38018 3.12264 9.74388 3.27552 10.0118 3.54529C10.2797 3.81505 10.43 4.17981 10.43 4.56L10.45 18.18ZM20.9 12.18C20.8974 12.5611 20.7448 12.9259 20.4753 13.1953C20.2059 13.4648 19.8411 13.6174 19.46 13.62H15C14.8109 13.62 14.6236 13.5828 14.4489 13.5104C14.2742 13.438 14.1155 13.332 13.9818 13.1982C13.848 13.0645 13.742 12.9058 13.6696 12.7311C13.5972 12.5564 13.56 12.3691 13.56 12.18V4.56C13.5587 4.37053 13.595 4.18268 13.6669 4.00737C13.7388 3.83206 13.8448 3.67278 13.9788 3.5388C14.1128 3.40482 14.2721 3.2988 14.4474 3.2269C14.6227 3.15501 14.8105 3.11867 15 3.12H19.45C19.8311 3.12262 20.1959 3.27517 20.4653 3.54466C20.7348 3.81415 20.8874 4.1789 20.89 4.56L20.9 12.18Z" fill="white"/>
</svg>
