<svg width="256" height="256" viewBox="0 0 256 256" fill="none" xmlns="http://www.w3.org/2000/svg">
<path d="M236.6 94.9999C236.6 83.8999 227.5 74.7999 216.4 74.7999C205.3 74.7999 196.2 83.8999 196.2 94.9999C196.2 98.6999 197.3 102.2 199.1 105.2L171.9 132.4C169.1 131 166 130.1 162.7 130.1C158.5 130.1 154.7 131.4 151.4 133.5L124.1 106.3C126.3 103.1 127.6 99.1999 127.6 94.9999C127.6 83.8999 118.5 74.7999 107.4 74.7999C96.3002 74.7999 87.2002 83.8999 87.2002 94.9999C87.2002 98.2999 88.1002 101.4 89.5002 104.1L60.6002 133C57.6002 131.2 54.1002 130.1 50.4002 130.1C39.3002 130.1 30.2002 139.2 30.2002 150.3C30.2002 161.4 39.3002 170.5 50.4002 170.5C61.5002 170.5 70.6002 161.4 70.6002 150.3C70.6002 146.6 69.5002 143.1 67.7002 140.1L96.1002 111.7C99.3002 113.9 103.2 115.2 107.4 115.2C110.7 115.2 113.8 114.3 116.5 112.9L144.7 141.1C143.3 143.9 142.4 147 142.4 150.3C142.4 161.4 151.5 170.5 162.6 170.5C173.7 170.5 182.8 161.4 182.8 150.3C182.8 146.1 181.5 142.2 179.4 139L206.1 112.3C209.1 114.1 212.6 115.2 216.3 115.2C227.5 115.2 236.6 106.1 236.6 94.9999ZM50.4002 160.4C44.8002 160.4 40.2002 155.8 40.2002 150.2C40.2002 144.6 44.8002 140 50.4002 140C53.2002 140 55.7002 141.1 57.6002 143C59.4002 144.8 60.6002 147.4 60.6002 150.2C60.6002 155.9 56.0002 160.4 50.4002 160.4ZM107.4 105.1C101.8 105.1 97.2002 100.5 97.2002 94.8999C97.2002 89.2999 101.8 84.6999 107.4 84.6999C113 84.6999 117.6 89.2999 117.6 94.8999C117.6 100.6 113 105.1 107.4 105.1ZM162.7 160.4C157.1 160.4 152.5 155.8 152.5 150.2C152.5 144.6 157.1 140 162.7 140C168.3 140 172.9 144.6 172.9 150.2C172.8 155.9 168.3 160.4 162.7 160.4ZM209.2 102.1C207.4 100.3 206.2 97.6999 206.2 94.8999C206.2 89.2999 210.8 84.6999 216.4 84.6999C222 84.6999 226.6 89.2999 226.6 94.8999C226.6 100.5 222 105.1 216.4 105.1C213.6 105.1 211 104 209.2 102.1Z" fill="white"/>
<path d="M9.5001 212.7C12.5001 212.7 14.9001 210.3 14.9001 207.3V22.1C14.9001 19.1 12.5001 16.7 9.5001 16.7C6.5001 16.7 4.1001 19.1 4.1001 22.1V207.3C4.1001 210.3 6.5001 212.7 9.5001 212.7Z" fill="white"/>
<path d="M37.7001 228.5H9.5001C6.5001 228.5 4.1001 230.9 4.1001 233.9C4.1001 236.9 6.5001 239.3 9.5001 239.3H37.8001C40.8001 239.3 43.2001 236.9 43.2001 233.9C43.2001 230.9 40.7001 228.5 37.7001 228.5Z" fill="white"/>
<path d="M89.9001 228.5H61.7001C58.7001 228.5 56.3 230.9 56.3 233.9C56.3 236.9 58.7001 239.3 61.7001 239.3H90C93 239.3 95.4001 236.9 95.4001 233.9C95.4001 230.9 92.9001 228.5 89.9001 228.5Z" fill="white"/>
<path d="M142.1 228.5H113.8C110.8 228.5 108.4 230.9 108.4 233.9C108.4 236.9 110.8 239.3 113.8 239.3H142.1C145.1 239.3 147.5 236.9 147.5 233.9C147.5 230.9 145.1 228.5 142.1 228.5Z" fill="white"/>
<path d="M194.3 228.5H166C163 228.5 160.6 230.9 160.6 233.9C160.6 236.9 163 239.3 166 239.3H194.3C197.3 239.3 199.7 236.9 199.7 233.9C199.7 230.9 197.3 228.5 194.3 228.5Z" fill="white"/>
<path d="M246.5 228.5H218.2C215.2 228.5 212.8 230.9 212.8 233.9C212.8 236.9 215.2 239.3 218.2 239.3H246.5C249.5 239.3 251.9 236.9 251.9 233.9C251.9 230.9 249.5 228.5 246.5 228.5Z" fill="white"/>
</svg>
