<svg width="64" height="64" viewBox="0 0 64 64" fill="none" xmlns="http://www.w3.org/2000/svg">
<path d="M50 38C43.373 38 38 43.373 38 50C38 56.627 43.373 62 50 62C56.627 62 62 56.627 62 50C62 43.373 56.627 38 50 38ZM43 52C41.895 52 41 51.105 41 50C41 48.895 41.895 48 43 48C44.105 48 45 48.895 45 50C45 51.105 44.105 52 43 52ZM50 52C48.895 52 48 51.105 48 50C48 48.895 48.895 48 50 48C51.105 48 52 48.895 52 50C52 51.105 51.105 52 50 52ZM57 52C55.895 52 55 51.105 55 50C55 48.895 55.895 48 57 48C58.105 48 59 48.895 59 50C59 51.105 58.105 52 57 52Z" fill="white"/>
<path d="M32 26C38.627 26 44 20.627 44 14C44 7.373 38.627 2 32 2C25.373 2 20 7.373 20 14C20 20.627 25.373 26 32 26ZM35.5 12C36.605 12 37.5 12.895 37.5 14C37.5 15.105 36.605 16 35.5 16C34.395 16 33.5 15.105 33.5 14C33.5 12.895 34.395 12 35.5 12ZM28.5 12C29.605 12 30.5 12.895 30.5 14C30.5 15.105 29.605 16 28.5 16C27.395 16 26.5 15.105 26.5 14C26.5 12.895 27.395 12 28.5 12Z" fill="white"/>
<path d="M14 38C7.373 38 2 43.373 2 50C2 56.627 7.373 62 14 62C20.627 62 26 56.627 26 50C26 43.373 20.627 38 14 38ZM14 52C12.895 52 12 51.105 12 50C12 48.895 12.895 48 14 48C15.105 48 16 48.895 16 50C16 51.105 15.105 52 14 52Z" fill="white"/>
<path d="M17.599 15.8L16.398 14.2C9.79 19.164 6 26.745 6 35C6 35.348 6.007 35.6929 6.021 36.0379L8.019 35.962C8.007 35.643 8 35.322 8 35C8 27.38 11.499 20.382 17.599 15.8Z" fill="white"/>
<path d="M26.239 58.3051L25.76 60.2461C27.79 60.7461 29.889 61.0001 32 61.0001C34.111 61.0001 36.21 60.7461 38.239 60.2461L37.76 58.3051C34.015 59.2271 29.985 59.2271 26.239 58.3051Z" fill="white"/>
<path d="M57.9791 36.0379C57.9931 35.6929 58.0001 35.348 58.0001 35C58.0001 26.745 54.2101 19.164 47.6031 14.2L46.4021 15.8C52.5011 20.382 56.0001 27.38 56.0001 35C56.0001 35.322 55.9931 35.643 55.9811 35.962L57.9791 36.0379Z" fill="white"/>
</svg>
