<svg width="62" height="62" viewBox="0 0 62 62" fill="none" xmlns="http://www.w3.org/2000/svg">
<path d="M56.94 49.538L49 47.248V45.235C50.057 44.386 50.893 43.275 51.411 42H52C54.206 42 56 40.206 56 38V29.123C56 26.332 54.172 23.898 51.521 23.106L50.607 22.192C48.548 20.134 45.811 19 42.899 19C41.894 19 40.924 19.148 40 19.404V10C41.103 10 42 9.103 42 8V6C42 4.897 41.103 4 40 4H28.592C27.109 1.518 24.456 0 21.529 0H20.472C17.544 0 14.892 1.518 13.409 4H2C0.897 4 0 4.897 0 6V8C0 9.103 0.897 10 2 10V36H20V47.142C18.279 47.589 17 49.141 17 51C17 53.206 18.794 55 21 55C23.206 55 25 53.206 25 51C25 49.141 23.721 47.589 22 47.142V36H32V38C32 40.206 33.794 42 36 42H36.589C37.107 43.275 37.943 44.386 39 45.235V47.248L31.06 49.538C28.081 50.398 26 53.163 26 56.264V62H62V56.264C62 53.163 59.919 50.398 56.94 49.538ZM23 51C23 52.103 22.103 53 21 53C19.897 53 19 52.103 19 51C19 49.897 19.897 49 21 49C22.103 49 23 49.897 23 51ZM50.576 49.784L48.598 54.399L45.496 51.918L48.289 49.125L50.576 49.784ZM52 40H51.931C51.972 39.672 52 39.339 52 39V36C53.103 36 54 36.897 54 38C54 39.103 53.103 40 52 40ZM2 6H14.618L14.894 5.447C15.957 3.321 18.095 2 20.472 2H21.529C23.906 2 26.044 3.321 27.106 5.447L27.382 6H40V8H2V6ZM4 34V10H38V20.177C34.447 21.975 32 25.653 32 29.9V34H4ZM36 40C34.897 40 34 39.103 34 38C34 36.897 34.897 36 36 36V39C36 39.339 36.028 39.672 36.069 40H36ZM36.261 34H36C35.268 34 34.591 34.212 34 34.556V29.899C34 24.992 37.992 21 42.899 21C45.276 21 47.511 21.926 49.192 23.606L50.488 24.902L50.758 24.969C52.667 25.448 54 27.155 54 29.123V34.556C53.409 34.212 52.732 34 52 34H51.739C51.137 32.26 49.5 31 47.558 31C47.079 31 46.607 31.077 46.153 31.228L44 31.946L41.847 31.228C41.393 31.077 40.92 31 40.441 31C38.499 31 36.863 32.26 36.261 34ZM38 39V35.441C38 34.095 39.095 33 40.441 33C40.704 33 40.963 33.042 41.213 33.125L44 34.054L46.786 33.125C47.036 33.042 47.296 33 47.558 33C48.905 33 50 34.095 50 35.441V39C50 42.309 47.309 45 44 45C40.691 45 38 42.309 38 39ZM44 47C45.061 47 46.073 46.788 47 46.411V47.586L44 50.586L41 47.586V46.411C41.927 46.788 42.939 47 44 47ZM39.71 49.124L42.503 51.917L39.401 54.398L37.423 49.783L39.71 49.124ZM28 56.264C28 54.05 29.486 52.075 31.614 51.46L35.487 50.342L38.598 57.601L43 54.081V60H34V54H32V60H28V56.264ZM60 60H56V54H54V60H45V54.081L49.401 57.602L52.512 50.343L56.385 51.461C58.514 52.074 60 54.05 60 56.264V60Z" fill="white"/>
<path d="M24 4H18V6H24V4Z" fill="white"/>
<path d="M21 12C15.486 12 11 16.486 11 22C11 27.514 15.486 32 21 32C26.514 32 31 27.514 31 22C31 16.486 26.514 12 21 12ZM25.898 15.688L24.471 17.114C23.49 16.416 22.294 16 21 16C19.706 16 18.51 16.416 17.529 17.115L16.102 15.689C17.457 14.634 19.154 14 21 14C22.846 14 24.543 14.634 25.898 15.688ZM17 22C17 19.794 18.794 18 21 18C23.206 18 25 19.794 25 22C25 24.206 23.206 26 21 26C18.794 26 17 24.206 17 22ZM14.688 17.103L16.115 18.529C15.416 19.51 15 20.706 15 22C15 23.294 15.416 24.49 16.115 25.471L14.688 26.897C13.634 25.542 13 23.846 13 22C13 20.154 13.634 18.458 14.688 17.103ZM16.102 28.312L17.529 26.886C18.51 27.584 19.706 28 21 28C22.294 28 23.49 27.584 24.471 26.885L25.898 28.311C24.543 29.366 22.846 30 21 30C19.154 30 17.457 29.366 16.102 28.312ZM27.312 26.897L25.885 25.471C26.584 24.49 27 23.294 27 22C27 20.706 26.584 19.51 25.885 18.529L27.312 17.103C28.366 18.458 29 20.154 29 22C29 23.846 28.366 25.542 27.312 26.897Z" fill="white"/>
<path d="M12 12H6V14H12V12Z" fill="white"/>
<path d="M12 30H6V32H12V30Z" fill="white"/>
</svg>
