<svg width="512" height="512" viewBox="0 0 512 512" fill="none" xmlns="http://www.w3.org/2000/svg">
<path d="M245.368 46.9079C246.106 47.4429 246.417 48.3959 246.136 49.2629L240.71 65.9599C240.077 67.9029 242.302 69.5189 243.954 68.3169L258.157 57.9999C258.895 57.4629 259.895 57.4629 260.634 57.9999L274.837 68.3179C276.489 69.5189 278.714 67.9039 278.083 65.9609L272.657 49.2639C272.374 48.3969 272.684 47.4439 273.423 46.9089L287.626 36.4519C289.278 35.2509 288.431 32.5009 286.388 32.5009H268.831C267.919 32.5009 267.108 32.0499 266.827 31.1809L261.401 14.5529C260.77 12.6119 258.022 12.6449 257.391 14.5859L251.965 31.1639C251.682 32.0309 250.873 32.5009 249.959 32.5009H232.402C230.361 32.5009 229.511 35.2509 231.164 36.4519L245.368 46.9079Z" fill="white"/>
<path d="M419.888 105.883C419.243 105.237 419.087 104.248 419.501 103.436L427.472 87.7909C428.398 85.9729 426.454 84.0289 424.634 84.9549L408.991 92.9259C408.178 93.3419 407.19 93.1839 406.544 92.5389L394.13 80.1249C392.687 78.6799 390.239 79.9279 390.558 81.9449L393.304 99.2849C393.447 100.187 392.991 101.08 392.179 101.494L376.536 109.465C374.716 110.391 375.145 113.106 377.163 113.424L394.503 116.172C395.407 116.315 396.114 117.022 396.257 117.924L399.001 135.264C399.321 137.282 402.036 137.711 402.962 135.891L410.933 120.248C411.347 119.434 412.24 118.98 413.142 119.123L430.482 121.869C432.5 122.189 433.748 119.74 432.302 118.297L419.888 105.883Z" fill="white"/>
<path d="M497.972 252.951L481.618 247.525C480.747 247.242 480.501 246.433 480.501 245.519V227.962C480.501 225.921 477.544 225.071 476.345 226.724L465.859 240.927C465.32 241.665 464.281 241.976 463.414 241.695L446.675 236.267C444.734 235.636 443.097 237.859 444.296 239.511L454.607 253.716C455.142 254.454 455.139 255.454 454.602 256.193L444.28 270.398C443.081 272.05 444.692 274.273 446.635 273.642L463.331 268.216C464.2 267.935 465.149 268.243 465.688 268.982L476.347 283.185C477.546 284.837 480.501 283.99 480.501 281.947V264.39C480.501 263.476 480.747 262.667 481.618 262.386L498.145 256.958C500.086 256.33 499.915 253.582 497.972 252.951Z" fill="white"/>
<path d="M139.704 108.779C141.722 108.459 142.151 105.746 140.333 104.818L124.69 96.8469C123.874 96.4329 123.419 95.5399 123.565 94.6379L126.309 77.2979C126.629 75.2799 124.18 74.0339 122.737 75.4779L110.325 87.8919C109.679 88.5379 108.688 88.6949 107.876 88.2789L92.231 80.3079C90.413 79.3819 88.469 81.3259 89.397 83.1439L97.366 98.7889C97.782 99.6019 97.626 100.59 96.979 101.236L84.565 113.65C83.122 115.093 84.368 117.543 86.385 117.222L103.725 114.476C104.629 114.333 105.518 114.787 105.934 115.601L113.905 131.244C114.833 133.064 117.546 132.635 117.864 130.617L120.612 113.277C120.755 112.375 121.462 111.668 122.364 111.525L139.704 108.779Z" fill="white"/>
<path d="M67.948 232.941C69.147 231.291 67.532 229.066 65.591 229.699L48.894 235.123C48.025 235.406 47.074 235.096 46.539 234.357L36.265 220.154C35.066 218.502 32.501 219.349 32.501 221.392V238.949C32.501 239.863 31.867 240.672 30.996 240.953L14.275 246.381C12.334 247.01 12.318 249.758 14.262 250.391L31 255.814C31.869 256.097 32.5 256.906 32.5 257.82V275.377C32.5 277.418 35.065 278.268 36.264 276.615L46.562 262.412C47.099 261.674 48.035 261.363 48.904 261.646L65.595 267.072C67.538 267.703 69.148 265.48 67.949 263.828L57.629 249.625C57.092 248.885 57.093 247.885 57.63 247.146L67.948 232.941Z" fill="white"/>
<path d="M370.45 256.971C368.544 215.645 344.688 180.051 310.253 161.608C307.538 160.128 304.739 158.77 301.882 157.534C287.939 151.473 272.552 148.11 256.378 148.11C195.628 148.11 146.026 195.561 142.469 255.436L142.5 255.43V255.633C142.5 257.842 142.395 267.731 142.395 267.731L140.694 271.501H152.065C156.338 257.501 169.458 247.933 184.936 247.933C203.881 247.933 219.295 263.759 219.295 282.704C219.295 301.647 203.881 316.756 184.936 316.756C166.801 316.756 151.907 302.501 150.67 284.501H137.102C136.813 284.501 136.539 284.964 136.26 284.925L121.987 324.79C119.983 330.349 124.1 336.501 130.007 336.501H142.298L142.206 399.989C142.206 412.524 152.372 422.501 164.907 422.501H205.5V482.194C205.5 491.495 214.841 498.501 224.142 498.501H328.576C337.877 498.501 345.501 491.495 345.501 482.194V362.277C345.501 345.92 349.817 329.949 357.46 315.482C365.444 300.371 370.118 283.255 370.554 265.078C370.574 264.166 370.583 263.234 370.583 262.301C370.582 260.518 370.53 258.734 370.45 256.971ZM258.216 248.5H248.5V258.293C248.5 261.711 245.416 264.481 242 264.481C238.584 264.481 235.5 261.711 235.5 258.293V248.5H226.698C223.282 248.5 220.51 245.416 220.51 242C220.51 238.584 223.281 235.5 226.698 235.5H235.5V226.775C235.5 223.359 238.584 220.587 242 220.587C245.416 220.587 248.5 223.358 248.5 226.775V235.5H258.216C261.632 235.5 264.404 238.584 264.404 242C264.404 245.416 261.632 248.5 258.216 248.5Z" fill="white"/>
<path d="M200.507 298.637C204.445 294.655 206.921 289.188 206.921 283.114C206.921 270.985 197.066 261.132 184.937 261.132C178.929 261.132 173.462 263.54 169.48 267.478C165.455 271.482 162.957 277.017 162.957 283.115C162.957 295.242 172.811 305.097 184.937 305.097C191.013 305.096 196.524 302.621 200.507 298.637Z" fill="white"/>
</svg>
