<svg width="450" height="510" viewBox="0 0 450 510" fill="none" xmlns="http://www.w3.org/2000/svg">
<path d="M440 0H110C104.478 0 100 4.478 100 10V101.88C100 107.402 104.478 111.88 110 111.88H440C445.522 111.88 450 107.402 450 101.88V10C450 4.478 445.522 0 440 0ZM430 91.88H120V20H430V91.88Z" fill="white"/>
<path d="M440 265.42H110C104.478 265.42 100 269.898 100 275.42V367.29C100 372.812 104.478 377.29 110 377.29H440C445.522 377.29 450 372.812 450 367.29V275.42C450 269.897 445.522 265.42 440 265.42ZM430 357.29H120V285.42H430V357.29Z" fill="white"/>
<path d="M160 65.9399H390C395.522 65.9399 400 61.4619 400 55.9399C400 50.4179 395.522 45.9399 390 45.9399H160C154.478 45.9399 150 50.4179 150 55.9399C150 61.4619 154.478 65.9399 160 65.9399Z" fill="white"/>
<path d="M160 331.35H390C395.522 331.35 400 326.872 400 321.35C400 315.828 395.522 311.35 390 311.35H160C154.478 311.35 150 315.828 150 321.35C150 326.872 154.478 331.35 160 331.35Z" fill="white"/>
<path d="M440 132.71H110C104.478 132.71 100 137.188 100 142.71V234.58C100 240.102 104.478 244.58 110 244.58H440C445.522 244.58 450 240.102 450 234.58V142.71C450 137.188 445.522 132.71 440 132.71ZM430 224.58H120V152.71H430V224.58Z" fill="white"/>
<path d="M440 398.12H110C104.478 398.12 100 402.598 100 408.12V500C100 505.522 104.478 510 110 510H440C445.522 510 450 505.522 450 500V408.12C450 402.598 445.522 398.12 440 398.12ZM430 490H120V418.12H430V490Z" fill="white"/>
<path d="M160 198.65H390C395.522 198.65 400 194.172 400 188.65C400 183.128 395.522 178.65 390 178.65H160C154.478 178.65 150 183.128 150 188.65C150 194.172 154.478 198.65 160 198.65Z" fill="white"/>
<path d="M60 55.9399C60 39.3979 46.542 25.9399 30 25.9399C13.458 25.9399 0 39.3979 0 55.9399C0 68.9759 8.361 80.0919 20 84.2199V160.37C8.361 164.498 0 175.613 0 188.65C0 201.687 8.361 212.802 20 216.93V293.07C8.361 297.198 0 308.313 0 321.35C0 334.387 8.361 345.502 20 349.63V425.78C8.361 429.908 0 441.023 0 454.06C0 470.602 13.458 484.06 30 484.06C46.542 484.06 60 470.602 60 454.06C60 441.024 51.639 429.908 40 425.78V349.63C51.639 345.502 60 334.387 60 321.35C60 308.313 51.639 297.198 40 293.07V216.93C51.639 212.802 60 201.687 60 188.65C60 175.613 51.639 164.498 40 160.37V84.2199C51.639 80.0919 60 68.9769 60 55.9399ZM30 45.9399C35.514 45.9399 40 50.4259 40 55.9399C40 61.4539 35.514 65.9399 30 65.9399C24.486 65.9399 20 61.4539 20 55.9399C20 50.4259 24.486 45.9399 30 45.9399ZM30 464.06C24.486 464.06 20 459.574 20 454.06C20 448.546 24.486 444.06 30 444.06C35.514 444.06 40 448.546 40 454.06C40 459.574 35.514 464.06 30 464.06ZM30 331.35C24.486 331.35 20 326.864 20 321.35C20 315.836 24.486 311.35 30 311.35C35.514 311.35 40 315.836 40 321.35C40 326.864 35.514 331.35 30 331.35ZM30 198.65C24.486 198.65 20 194.164 20 188.65C20 183.136 24.486 178.65 30 178.65C35.514 178.65 40 183.136 40 188.65C40 194.164 35.514 198.65 30 198.65Z" fill="white"/>
<path d="M160 464.06H390C395.522 464.06 400 459.582 400 454.06C400 448.538 395.522 444.06 390 444.06H160C154.478 444.06 150 448.538 150 454.06C150 459.582 154.478 464.06 160 464.06Z" fill="white"/>
</svg>
