<svg width="112" height="96" viewBox="0 0 112 96" fill="none" xmlns="http://www.w3.org/2000/svg">
<path d="M100 24C94.8 24 90.4 27.3 88.7 32H76V16H68V4H60V16H52V4H44V16H36V32H16V23.3C20.7 21.6 24 17.2 24 12C24 5.4 18.6 0 12 0C5.4 0 0 5.4 0 12C0 17.2 3.3 21.6 8 23.3V40H36V48H8V64.7C3.3 66.4 0 70.8 0 76C0 82.6 5.4 88 12 88C18.6 88 24 82.6 24 76C24 70.8 20.7 66.4 16 64.7V56H36V72H44V84H52V72H60V84H68V72H76V56H84V72.7C79.3 74.4 76 78.8 76 84C76 90.6 81.4 96 88 96C94.6 96 100 90.6 100 84C100 78.8 96.7 74.4 92 72.7V48H76V40H88.7C90.4 44.7 94.8 48 100 48C106.6 48 112 42.6 112 36C112 29.4 106.6 24 100 24ZM12 16C9.8 16 8 14.2 8 12C8 9.8 9.8 8 12 8C14.2 8 16 9.8 16 12C16 14.2 14.2 16 12 16ZM12 80C9.8 80 8 78.2 8 76C8 73.8 9.8 72 12 72C14.2 72 16 73.8 16 76C16 78.2 14.2 80 12 80ZM68 64H44V24H68V64ZM88 80C90.2 80 92 81.8 92 84C92 86.2 90.2 88 88 88C85.8 88 84 86.2 84 84C84 81.8 85.8 80 88 80ZM100 40C97.8 40 96 38.2 96 36C96 33.8 97.8 32 100 32C102.2 32 104 33.8 104 36C104 38.2 102.2 40 100 40Z" fill="white"/>
<path d="M56 48H48V56H56V48Z" fill="white"/>
</svg>
