<svg width="96" height="96" viewBox="0 0 96 96" fill="none" xmlns="http://www.w3.org/2000/svg">
<path d="M58.2921 55.2929L49.2921 64.2928L50.7063 65.707L59.7063 56.7071L58.2921 55.2929Z" fill="white"/>
<path d="M37.7064 55.2928L36.2922 56.707L45.2922 65.707L46.7064 64.2928L37.7064 55.2928Z" fill="white"/>
<path d="M28 92C28 93.105 28.895 94 30 94H66C67.105 94 68 93.105 68 92V83H28V92ZM48 85C49.657 85 51 86.343 51 88C51 89.657 49.657 91 48 91C46.343 91 45 89.657 45 88C45 86.343 46.343 85 48 85Z" fill="white"/>
<path d="M23 15.899V23C23 23.441 23.29 23.831 23.713 23.958L33 26.744V37H30C28.895 37 28 37.895 28 39V43H68V39C68 37.895 67.105 37 66 37H63V26.744L72.287 23.958C72.71 23.831 73 23.441 73 23V15.899C75.282 15.436 77 13.419 77 11C77 8.239 74.761 6 72 6C69.239 6 67 8.239 67 11C67 13.419 68.718 15.436 71 15.899V22.256L61.713 25.042C61.29 25.169 61 25.559 61 26V37H49V11.899C51.282 11.436 53 9.419 53 7C53 4.239 50.761 2 48 2C45.239 2 43 4.239 43 7C43 9.419 44.718 11.436 47 11.899V37H35V26C35 25.559 34.71 25.169 34.287 25.042L25 22.256V15.899C27.282 15.436 29 13.419 29 11C29 8.239 26.761 6 24 6C21.239 6 19 8.239 19 11C19 13.419 20.718 15.436 23 15.899ZM70 11C70 9.895 70.895 9 72 9C73.105 9 74 9.895 74 11C74 12.105 73.105 13 72 13C70.895 13 70 12.105 70 11ZM46 7C46 5.895 46.895 5 48 5C49.105 5 50 5.895 50 7C50 8.105 49.105 9 48 9C46.895 9 46 8.105 46 7ZM45 39H51V41H45V39ZM24 9C25.105 9 26 9.895 26 11C26 12.105 25.105 13 24 13C22.895 13 22 12.105 22 11C22 9.895 22.895 9 24 9Z" fill="white"/>
<path d="M8 40C10.419 40 12.436 38.282 12.899 36H17V62C17 62.552 17.447 63 18 63H28V70H22C21.447 70 21 70.448 21 71V83H14.899C14.436 80.718 12.419 79 10 79C7.239 79 5 81.239 5 84C5 86.761 7.239 89 10 89C12.419 89 14.436 87.282 14.899 85H22C22.553 85 23 84.552 23 84V72H28V81H68V72H73V84C73 84.552 73.447 85 74 85H81.101C81.564 87.282 83.581 89 86 89C88.761 89 91 86.761 91 84C91 81.239 88.761 79 86 79C83.581 79 81.564 80.718 81.101 83H75V71C75 70.448 74.553 70 74 70H68V63H78C78.553 63 79 62.552 79 62V36H83.101C83.564 38.282 85.581 40 88 40C90.761 40 93 37.761 93 35C93 32.239 90.761 30 88 30C85.581 30 83.564 31.718 83.101 34H78C77.447 34 77 34.448 77 35V61H68V45H28V61H19V35C19 34.448 18.553 34 18 34H12.899C12.436 31.718 10.419 30 8 30C5.239 30 3 32.239 3 35C3 37.761 5.239 40 8 40ZM10 86C8.895 86 8 85.105 8 84C8 82.895 8.895 82 10 82C11.105 82 12 82.895 12 84C12 85.105 11.105 86 10 86ZM86 82C87.105 82 88 82.895 88 84C88 85.105 87.105 86 86 86C84.895 86 84 85.105 84 84C84 82.895 84.895 82 86 82ZM88 33C89.105 33 90 33.895 90 35C90 36.105 89.105 37 88 37C86.895 37 86 36.105 86 35C86 33.895 86.895 33 88 33ZM34 53H35.501C41.45 53 46.428 57.156 47.691 62.722C47.766 63.054 48.235 63.054 48.31 62.722C49.572 57.156 54.551 53 60.499 53H62V54.501C62 61.404 56.404 67 49.501 67H49V77H47V67H46.499C39.596 67 34 61.404 34 54.501V53ZM8 33C9.105 33 10 33.895 10 35C10 36.105 9.105 37 8 37C6.895 37 6 36.105 6 35C6 33.895 6.895 33 8 33Z" fill="white"/>
</svg>
