<svg width="64" height="64" viewBox="0 0 64 64" fill="none" xmlns="http://www.w3.org/2000/svg">
<path d="M28.371 31.8791C28.371 34.0691 30.148 35.8451 32.337 35.8451C33.875 35.8451 35.193 34.9611 35.851 33.6821L35.862 33.6921L43.102 20.6301L30.392 28.4241L30.404 28.4361C29.197 29.1171 28.371 30.3951 28.371 31.8791Z" fill="white"/>
<path d="M48.315 12.981C44.251 9.42902 39 7.16102 33 6.82202V12.849C38 13.167 40.946 14.755 43.904 17.233L48.315 12.981Z" fill="white"/>
<path d="M51.146 30H57.166C56.762 24 54.415 19.07 50.771 15.03L46.512 19.263C49.078 22.203 50.766 26 51.146 30Z" fill="white"/>
<path d="M51.174 33C50.537 43 42.252 50.931 32.132 50.931C21.597 50.931 12.711 42.387 12.711 31.853C12.711 21.825 21 13.62 30 12.85V6.823C17 7.602 6.711 18.54 6.711 31.879C6.711 45.722 18.131 56.931 31.974 56.931C45.406 56.931 56.564 46 57.205 33H51.174Z" fill="white"/>
</svg>
