<svg width="256" height="256" viewBox="0 0 256 256" fill="none" xmlns="http://www.w3.org/2000/svg">
<path d="M51.5999 122.4C52.7999 122.4 53.9999 121.9 54.9999 121C65.2999 110.8 78.7999 106.1 97.2999 106.1C97.3999 106.1 97.5999 106.1 97.6999 106.1C101.3 106.1 105.1 106.3 108.9 106.4C125.9 107.1 145.1 107.8 160 96.5L166.4 102.6C167.3 103.5 168.5 103.9 169.7 103.9C170.2 103.9 170.6 103.8 171.1 103.7C172.7 103.2 174 101.9 174.4 100.2L180.9 72.5C181.3 70.8 180.8 69.1 179.5 67.9C178.2 66.7 176.5 66.3 174.8 66.8L147.6 75C146 75.5 144.7 76.8 144.3 78.5C143.9 80.2 144.4 81.9 145.7 83.1L152.8 89.8C140.8 98 124.8 97.4 109.3 96.8C105.4 96.6 101.5 96.5 97.7999 96.5C97.6999 96.5 97.4999 96.5 97.3999 96.5C76.1999 96.5 60.5999 102.1 48.3999 114.2C46.4999 116.1 46.4999 119.1 48.2999 121C49.0999 121.9 50.3999 122.4 51.5999 122.4ZM169.6 78.4L166.9 89.9L158.3 81.8L169.6 78.4Z" fill="white"/>
<path d="M94.0998 72.3C94.6998 72.3 95.1999 72.2 95.7999 72L100.9 70.1L102.8 75.2C103.5 77.1 105.4 78.3 107.3 78.3C107.9 78.3 108.4 78.2 109 78C111.5 77.1 112.8 74.3 111.8 71.8L109.9 66.7L115 64.8C117.5 63.9 118.8 61.1 117.8 58.6C116.9 56.1 114.1 54.9 111.6 55.8L106.5 57.7L104.6 52.6C103.7 50.1 100.9 48.9 98.3999 49.8C95.8999 50.7 94.5998 53.5 95.5998 56L97.4998 61.1L92.3999 63C89.8999 63.9 88.5998 66.7 89.5998 69.2C90.2998 71.1 92.0998 72.3 94.0998 72.3Z" fill="white"/>
<path d="M110.6 122.9C102.9 119.4 93.6999 122.8 90.1999 130.5C88.4999 134.2 88.3999 138.4 89.7999 142.3C91.1999 146.2 94.0999 149.2 97.7999 150.9C99.7999 151.8 102 152.3 104.2 152.3C106 152.3 107.9 152 109.6 151.3C113.5 149.9 116.5 147 118.2 143.3C119.9 139.6 120 135.4 118.6 131.5C117.2 127.7 114.4 124.6 110.6 122.9ZM109.5 139.3C108.9 140.7 107.7 141.8 106.3 142.3C104.9 142.8 103.3 142.8 101.9 142.1C100.5 141.5 99.3999 140.3 98.8999 138.9C98.3999 137.5 98.3999 135.9 99.0999 134.5C100.1 132.4 102.2 131.1 104.4 131.1C105.2 131.1 106 131.3 106.8 131.6C108.2 132.2 109.3 133.4 109.8 134.8C110.2 136.4 110.1 137.9 109.5 139.3Z" fill="white"/>
<path d="M173.5 57.8001C174.5 59.0001 175.8 59.6001 177.3 59.6001C178.3 59.6001 179.4 59.3001 180.3 58.6001L205.6 38.5001C207.7 36.8001 208 33.8001 206.4 31.7001C204.8 29.6001 201.7 29.3001 199.6 30.9001L178 48.1001L170.8 39.2001C169.1 37.1001 166.1 36.8001 164 38.5001C161.9 40.2001 161.6 43.2001 163.3 45.3001L173.5 57.8001Z" fill="white"/>
<path d="M245.8 11.9H10.1999C7.4999 11.9 5.3999 14.1 5.3999 16.7C5.3999 19.3 7.5999 21.5 10.1999 21.5H21.6999V167.7C21.6999 170.4 23.8999 172.5 26.4999 172.5H79.8999L59.5999 237.8C58.7999 240.3 60.1999 243 62.7999 243.8C63.2999 244 63.7999 244 64.1999 244C66.2999 244 68.1999 242.7 68.7999 240.6L89.9999 172.6H166L187.2 240.7C187.8 242.8 189.7 244.1 191.8 244.1C192.3 244.1 192.8 244 193.2 243.9C195.7 243.1 197.2 240.4 196.4 237.9L176.1 172.6H229.5C232.2 172.6 234.3 170.4 234.3 167.8V21.6H245.8C248.5 21.6 250.6 19.4 250.6 16.8C250.6 14.2 248.4 11.9 245.8 11.9ZM224.7 162.9H31.2999V21.6H224.7V162.9Z" fill="white"/>
</svg>
