<svg width="256" height="256" viewBox="0 0 256 256" fill="none" xmlns="http://www.w3.org/2000/svg">
<path d="M97.2 117.2C98.1 116.2 98.7 114.9 98.6 113.6L98.5 109.7V109.6C98.5 107.3 98.1 95.5 96.9 87.9C96 82.6 92.6 78 87.7 75.6C83.3 73.4 76.6 70.8 71.2 68.9C72 67.6 72.7 66.3 73.3 64.9C76.4 63.4 78.9 60.8 80.2 57.8C81.4 55.6 82 53.1 82 50.6C82 49 81.7 47.3 81.2 45.8C80.9 44.5 80.3 43.2 79.5 42.1C80.1 35.2 78.1 28.2 73.8 22.7C68.4 15.8 60.2 11.8 51 11.6H48.9C39.9 11.8 31.7 15.9 26.3 22.7C22.2 28 20.2 35 20.8 42C20 43.1 19.5 44.4 19.1 45.7C18.6 47.2 18.3 48.9 18.3 50.5C18.3 53 18.9 55.5 19.9 57.4C21.3 60.7 23.8 63.3 26.9 64.8C27.5 66.2 28.2 67.6 29 68.8C23.4 70.8 16.8 73.4 12.5 75.5C7.7 77.9 4.2 82.5 3.3 87.8C2 95.5 1.7 107.3 1.6 109.6L1.5 113.5C1.5 114.9 2 116.2 2.9 117.1C3.8 118.1 5.1 118.6 6.5 118.6H93.4C95 118.7 96.3 118.2 97.2 117.2ZM11.9 108.6C12 105.1 12.4 95.6 13.4 89.6C13.8 87.4 15.2 85.6 17.1 84.6C22.9 81.7 34.1 77.7 38.7 76.1C40.7 75.4 42.1 73.5 42.1 71.3V70.4C42.1 68.9 41.5 67.6 40.4 66.6C38.3 64.8 36.8 62.3 36 59.5C35.5 57.8 34.2 56.5 32.5 56C31.1 55.6 29.9 54.6 29.1 52.9C28.7 52.1 28.5 51.2 28.5 50.3C28.5 49.7 28.6 49.2 28.8 48.6C28.9 48.4 28.9 48.3 28.9 48.1C29 47.7 29.2 47.3 29.5 47.1C30.8 45.9 31.4 44.2 31.1 42.4C30.2 37.5 31.4 32.4 34.5 28.5C38 24 43.4 21.4 49.2 21.2H51C57 21.3 62.4 24 65.9 28.5C68.9 32.4 70.2 37.5 69.3 42.4C69 44.1 69.6 45.9 70.9 47.1C71.2 47.4 71.4 47.7 71.5 48.1C71.5 48.3 71.6 48.5 71.7 48.7C71.9 49.2 72 49.8 72 50.3C72 51.2 71.8 52.1 71.2 53.2C70.6 54.6 69.4 55.6 68 56C66.3 56.5 65 57.8 64.5 59.5C63.7 62.3 62.2 64.7 60 66.6C58.9 67.6 58.3 68.9 58.3 70.4V71.3C58.3 73.4 59.7 75.4 61.7 76.1C65.2 77.3 77.2 81.5 83.3 84.6C85.2 85.6 86.6 87.4 87 89.6C87.9 94.6 88.3 102.7 88.5 108.6H11.9Z" fill="white"/>
<path d="M254.3 109.7C254.2 107.3 253.9 95.5 252.6 87.9C251.7 82.6 248.3 78 243.4 75.6C239 73.4 232.3 70.8 226.9 68.9C227.7 67.6 228.4 66.3 229 64.9C232.1 63.4 234.6 60.8 235.9 57.8C237.1 55.6 237.7 53.1 237.7 50.6C237.7 49 237.4 47.3 236.9 45.8C236.6 44.5 236 43.2 235.2 42.1C235.8 35.2 233.8 28.2 229.5 22.7C224.1 15.8 215.9 11.8 206.7 11.6H204.6C195.6 11.8 187.4 15.9 182 22.7C177.7 28.2 175.7 35.2 176.3 42.2C175.5 43.3 175 44.5 174.6 45.9C174.1 47.4 173.8 49.1 173.8 50.7C173.8 53.2 174.4 55.7 175.4 57.6C176.8 60.9 179.3 63.5 182.4 65C183 66.4 183.7 67.8 184.5 69C178.9 71 172.3 73.6 168 75.7C163.2 78.1 159.7 82.7 158.8 88C157.5 95.7 157.2 107.5 157.1 109.8L157 113.7C157 115.1 157.5 116.4 158.4 117.3C159.3 118.3 160.6 118.8 162 118.8H248.9C250.3 118.8 251.5 118.3 252.5 117.3C253.4 116.3 254 115 253.9 113.7L254.3 109.7ZM167.5 108.6C167.6 105.1 168 95.7 169 89.6C169.4 87.4 170.8 85.6 172.7 84.6C178.5 81.7 189.7 77.7 194.3 76.1C196.3 75.4 197.7 73.5 197.7 71.3V70.4C197.7 68.9 197.1 67.6 196 66.6C193.9 64.8 192.3 62.3 191.6 59.5C191.1 57.8 189.8 56.5 188.1 56C186.7 55.6 185.5 54.6 184.7 52.9C184.3 52.1 184.1 51.2 184.1 50.3C184.1 49.7 184.2 49.2 184.4 48.6C184.5 48.4 184.5 48.3 184.6 48.1C184.7 47.7 184.9 47.4 185.2 47.1C186.5 45.9 187.1 44.2 186.8 42.4C185.9 37.5 187.1 32.4 190.2 28.5C193.7 24 199.1 21.4 204.9 21.2H206.7C212.7 21.3 218.1 24 221.6 28.5C224.6 32.4 225.9 37.5 225 42.4C224.7 44.1 225.3 45.9 226.6 47.1C226.9 47.4 227.1 47.7 227.2 48.1C227.2 48.3 227.3 48.5 227.4 48.7C227.6 49.2 227.7 49.8 227.7 50.3C227.7 51.2 227.5 52.1 226.9 53.2C226.3 54.6 225.1 55.6 223.7 56C222 56.5 220.7 57.8 220.2 59.5C219.4 62.3 217.9 64.7 215.7 66.6C214.6 67.6 214 68.9 214 70.4V71.3C214 73.4 215.4 75.4 217.4 76.1C220.9 77.3 232.9 81.5 239 84.6C240.9 85.6 242.3 87.4 242.7 89.6C243.6 94.6 244 102.7 244.2 108.6H167.5Z" fill="white"/>
<path d="M174.8 213.8C173.9 208.5 170.4 203.9 165.6 201.5C161.3 199.4 154.7 196.8 149.1 194.8C149.9 193.5 150.6 192.2 151.2 190.8C154.3 189.2 156.8 186.7 158.1 183.7C159.3 181.5 159.9 179 159.9 176.5C159.9 174.8 159.6 173.2 159.1 171.6C158.8 170.3 158.2 169.1 157.4 168C158 161.1 156 154.1 151.7 148.5C146.3 141.6 138.1 137.6 128.9 137.4H126.8C117.8 137.6 109.6 141.7 104.2 148.5C99.9 154 97.9 161 98.5 168C97.7 169.1 97.2 170.3 96.8 171.7C96.3 173.3 96 174.9 96 176.5C96 179 96.6 181.5 97.6 183.4C99 186.7 101.5 189.3 104.6 190.8C105.2 192.2 105.9 193.6 106.7 194.8C101.1 196.8 94.5 199.4 90.2 201.5C85.4 203.9 82 208.5 81 213.8C79.7 221.5 79.4 233.2 79.3 235.6L79.2 239.5C79.2 240.9 79.7 242.2 80.6 243.1C81.5 244.1 82.8 244.6 84.2 244.6H171.1C172.5 244.6 173.7 244.1 174.7 243.1C175.6 242.1 176.2 240.8 176.1 239.5L176 235.5C176.4 233.3 176.1 221.5 174.8 213.8ZM89.7 234.6C89.8 231.1 90.2 221.6 91.2 215.6C91.6 213.4 93 211.6 94.9 210.6C100.7 207.7 111.9 203.7 116.5 202.1C118.5 201.4 119.9 199.5 119.9 197.3V196.4C119.9 194.9 119.3 193.6 118.2 192.6C116.1 190.8 114.5 188.3 113.8 185.5C113.3 183.8 112 182.5 110.3 182C108.9 181.6 107.7 180.6 106.9 178.9C106.5 178.1 106.3 177.2 106.3 176.3C106.3 175.7 106.4 175.2 106.6 174.6C106.7 174.4 106.7 174.3 106.7 174.1C106.8 173.7 107 173.3 107.3 173.1C108.6 171.9 109.2 170.2 108.9 168.4C108 163.5 109.2 158.4 112.3 154.5C115.8 150 121.2 147.4 127 147.2H128.8C134.8 147.3 140.2 150 143.7 154.5C146.8 158.4 148 163.5 147.1 168.4C146.8 170.1 147.4 171.9 148.7 173.1C149 173.4 149.2 173.7 149.3 174.1C149.3 174.3 149.4 174.5 149.5 174.7C149.7 175.2 149.8 175.8 149.8 176.3C149.8 177.2 149.6 178.1 149 179.2C148.4 180.6 147.2 181.6 145.8 182C144.1 182.5 142.8 183.8 142.3 185.5C141.5 188.3 140 190.7 137.8 192.6C136.7 193.6 136.1 194.9 136.1 196.4V197.3C136.1 199.4 137.5 201.4 139.5 202.1C144 203.7 155.3 207.7 161.1 210.6C163.1 211.6 164.4 213.4 164.8 215.6C165.7 220.6 166.1 228.7 166.3 234.6H89.7Z" fill="white"/>
<path d="M214.6 131.6C211.9 131.3 209.4 133.3 209.1 136.1C207 157.1 197 176.2 181 189.8C178.9 191.6 178.6 194.8 180.4 196.9C181.4 198.1 182.8 198.7 184.2 198.7C185.4 198.7 186.5 198.3 187.5 197.5C205.6 182.1 216.8 160.7 219.1 137.1C219.3 134.3 217.3 131.8 214.6 131.6Z" fill="white"/>
<path d="M47 136.1C46.7 133.3 44.2 131.3 41.5 131.6C38.7 131.9 36.7 134.3 37 137.1C39.3 160.7 50.6 182.2 68.6 197.5C69.5 198.3 70.7 198.7 71.9 198.7C73.3 198.7 74.7 198.1 75.7 196.9C77.5 194.8 77.2 191.6 75.1 189.8C59.1 176.2 49.1 157.1 47 136.1Z" fill="white"/>
<path d="M99.6 51.4C100.2 51.4 100.7 51.3 101.3 51.1C118.3 45.1 137.7 45.1 154.7 51.1C157.3 52 160.2 50.7 161.1 48C162 45.4 160.7 42.5 158 41.6C138.8 34.8 117 34.8 97.9 41.6C95.3 42.5 93.9 45.4 94.8 48C95.6 50.1 97.6 51.4 99.6 51.4Z" fill="white"/>
</svg>
